<svg width="105" height="15" viewBox="0 0 105 15" fill="none" xmlns="http://www.w3.org/2000/svg">
<path d="M0.168 2H3.192V14H0.168V2ZM4.79362 4.88H7.75363L8.34563 8.432V14H5.36963V7.984L4.79362 4.88ZM11.7536 4.624C12.6283 4.624 13.3696 4.8 13.9776 5.152C14.5963 5.49333 15.0656 5.984 15.3856 6.624C15.7163 7.264 15.8816 8.02667 15.8816 8.912V14H12.9056V9.36C12.9056 8.60267 12.719 8.032 12.3456 7.648C11.9723 7.25333 11.439 7.056 10.7456 7.056C10.255 7.056 9.82829 7.16267 9.46563 7.376C9.11363 7.57867 8.83629 7.872 8.63363 8.256C8.44163 8.62933 8.34563 9.07733 8.34563 9.6L7.40163 9.104C7.51896 8.13333 7.78029 7.31733 8.18563 6.656C8.60163 5.99467 9.11363 5.49333 9.72163 5.152C10.3403 4.8 11.0176 4.624 11.7536 4.624ZM23.6806 3.648C23.03 3.648 22.5553 3.77067 22.2566 4.016C21.9686 4.26133 21.8246 4.66133 21.8246 5.216V14H18.8486V5.504C18.8486 4.65067 19.014 3.92 19.3446 3.312C19.686 2.704 20.1873 2.24 20.8486 1.92C21.5206 1.58933 22.3526 1.424 23.3446 1.424C23.75 1.424 24.118 1.46133 24.4486 1.536C24.79 1.6 25.126 1.69067 25.4566 1.808V4.016C25.1793 3.89867 24.8966 3.808 24.6086 3.744C24.3206 3.68 24.0113 3.648 23.6806 3.648ZM16.9766 7.824V5.6H25.3286V7.824H16.9766ZM26.8326 1.68H29.7926V14H26.8326V1.68ZM35.598 14.24C34.7447 14.24 34.0193 14.0693 33.422 13.728C32.8247 13.376 32.366 12.88 32.046 12.24C31.7367 11.6 31.582 10.8427 31.582 9.968V4.88H34.558V9.536C34.558 10.272 34.734 10.8373 35.086 11.232C35.438 11.6267 35.9447 11.824 36.606 11.824C37.0967 11.824 37.5127 11.7227 37.854 11.52C38.1953 11.3173 38.4567 11.024 38.638 10.64C38.83 10.256 38.926 9.80267 38.926 9.28L39.854 9.776C39.7473 10.736 39.4913 11.552 39.086 12.224C38.6913 12.8853 38.19 13.3867 37.582 13.728C36.9847 14.0693 36.3233 14.24 35.598 14.24ZM39.502 14L38.926 10.448V4.88H41.902V10.896L42.478 14H39.502ZM49.1451 14.256C48.0571 14.256 47.0811 14.0533 46.2171 13.648C45.3638 13.2427 44.6918 12.6773 44.2011 11.952C43.7105 11.2267 43.4651 10.3787 43.4651 9.408C43.4651 8.45867 43.6998 7.62667 44.1691 6.912C44.6385 6.19733 45.2838 5.63733 46.1051 5.232C46.9371 4.82667 47.8758 4.624 48.9211 4.624C49.9878 4.624 50.9051 4.85867 51.6731 5.328C52.4411 5.79733 53.0331 6.45867 53.4491 7.312C53.8651 8.16533 54.0731 9.168 54.0731 10.32H45.8491V8.448H52.4411L51.3691 9.12C51.3371 8.61867 51.2145 8.19733 51.0011 7.856C50.7985 7.504 50.5265 7.23733 50.1851 7.056C49.8438 6.864 49.4385 6.768 48.9691 6.768C48.4571 6.768 48.0145 6.86933 47.6411 7.072C47.2678 7.27467 46.9745 7.55733 46.7611 7.92C46.5585 8.28267 46.4571 8.704 46.4571 9.184C46.4571 9.792 46.5905 10.3093 46.8571 10.736C47.1345 11.1627 47.5291 11.488 48.0411 11.712C48.5638 11.936 49.1985 12.048 49.9451 12.048C50.6278 12.048 51.3105 11.9573 51.9931 11.776C52.6758 11.584 53.2891 11.3173 53.8331 10.976V12.912C53.2145 13.3387 52.5051 13.6693 51.7051 13.904C50.9158 14.1387 50.0625 14.256 49.1451 14.256ZM55.0905 4.88H58.0505L58.6425 8.432V14H55.6665V7.984L55.0905 4.88ZM62.0505 4.624C62.9252 4.624 63.6665 4.8 64.2745 5.152C64.8932 5.49333 65.3625 5.984 65.6825 6.624C66.0132 7.264 66.1785 8.02667 66.1785 8.912V14H63.2025V9.36C63.2025 8.60267 63.0158 8.032 62.6425 7.648C62.2692 7.25333 61.7358 7.056 61.0425 7.056C60.5518 7.056 60.1252 7.16267 59.7625 7.376C59.4105 7.57867 59.1332 7.872 58.9305 8.256C58.7385 8.62933 58.6425 9.07733 58.6425 9.6L57.6985 9.104C57.8158 8.13333 58.0772 7.31733 58.4825 6.656C58.8985 5.99467 59.4105 5.49333 60.0185 5.152C60.6372 4.8 61.3145 4.624 62.0505 4.624ZM67.6236 14V11.92L74.1196 6.592L76.1676 7.04H67.6716V4.88H77.2876V6.96L70.8076 12.288L69.0636 11.84H77.3196V14H67.6236ZM78.8975 4.752L80.3695 5.056L81.8575 4.752V14H78.8975V4.752ZM80.3855 3.92C79.8628 3.92 79.4362 3.78667 79.1055 3.52C78.7748 3.24267 78.6095 2.88 78.6095 2.432C78.6095 1.97333 78.7748 1.61067 79.1055 1.344C79.4362 1.07733 79.8628 0.943999 80.3855 0.943999C80.9188 0.943999 81.3455 1.07733 81.6655 1.344C81.9855 1.61067 82.1455 1.97333 82.1455 2.432C82.1455 2.88 81.9855 3.24267 81.6655 3.52C81.3455 3.78667 80.9188 3.92 80.3855 3.92ZM83.7725 1.68H86.7325V14H83.7725V1.68ZM88.6475 1.68H91.6075V14H88.6475V1.68ZM101.811 14L101.411 10.688L101.843 9.44L101.411 8.208L101.811 4.88H104.899L104.339 9.44L104.899 14H101.811ZM102.547 9.44C102.387 10.4107 102.083 11.2587 101.635 11.984C101.187 12.6987 100.621 13.2587 99.9385 13.664C99.2558 14.0587 98.4878 14.256 97.6345 14.256C96.7385 14.256 95.9492 14.0533 95.2665 13.648C94.5945 13.2427 94.0665 12.6827 93.6825 11.968C93.2985 11.2427 93.1065 10.4 93.1065 9.44C93.1065 8.48 93.2985 7.64267 93.6825 6.928C94.0665 6.20267 94.5945 5.63733 95.2665 5.232C95.9492 4.82667 96.7385 4.624 97.6345 4.624C98.4878 4.624 99.2558 4.82667 99.9385 5.232C100.621 5.62667 101.187 6.18133 101.635 6.896C102.093 7.61067 102.397 8.45867 102.547 9.44ZM96.1145 9.44C96.1145 9.93067 96.2158 10.368 96.4185 10.752C96.6212 11.1253 96.8985 11.424 97.2505 11.648C97.6132 11.8613 98.0292 11.968 98.4985 11.968C98.9678 11.968 99.4105 11.8613 99.8265 11.648C100.253 11.424 100.627 11.1253 100.947 10.752C101.267 10.368 101.507 9.93067 101.667 9.44C101.507 8.94933 101.267 8.51733 100.947 8.144C100.627 7.76 100.253 7.46133 99.8265 7.248C99.4105 7.024 98.9678 6.912 98.4985 6.912C98.0292 6.912 97.6132 7.024 97.2505 7.248C96.8985 7.46133 96.6212 7.76 96.4185 8.144C96.2158 8.51733 96.1145 8.94933 96.1145 9.44Z" fill="white"/>
</svg>
